<svg width="874" height="331" viewBox="0 0 874 331" fill="none" xmlns="http://www.w3.org/2000/svg">
<path d="M86.3188 329.181L114.113 179.969H138.982L111.187 141.935H79.0045L90.7074 73.1802L166.776 179.969H204.811L238.456 1.5H197.496L175.553 112.677L96.5589 1.5H62.9131L36.5816 141.935H8.78721L1.4729 179.969H71.6902L42.433 329.181H86.3188Z" fill="url(#paint0_linear_645_114)" stroke="#F2E4E4" stroke-width="3" stroke-linejoin="bevel"/>
<path d="M325.714 143.744L321.942 165.344H257.313L261.085 143.744H325.714ZM288.342 40.5433L266.656 165.344H239.485L261.085 40.5433H288.342ZM326.485 90.772L322.885 111.686H266.571L270.256 90.772H326.485ZM343.628 40.5433L339.857 62.2291H275.142L278.999 40.5433H343.628Z" fill="white"/>
<path d="M402.857 65.6577L354.771 165.344H324.685L391.2 40.5433H410.314L402.857 65.6577ZM411.771 165.344L397.8 62.9148L398.657 40.5433H416.657L439.971 165.344H411.771ZM418.285 118.886L414.428 140.486H351.171L355.028 118.886H418.285Z" fill="white"/>
<path d="M471.943 40.5433L517.028 40.629C524.628 40.7433 531.571 42.1433 537.857 44.8291C544.2 47.4576 549.143 51.4576 552.686 56.8291C556.229 62.2005 557.714 69.0863 557.143 77.4863C556.629 84.2863 555.029 90.0578 552.343 94.8006C549.714 99.4864 546.171 103.486 541.714 106.801C537.257 110.058 532.057 112.915 526.114 115.372L516.428 120.258H475.371L479.057 98.5721L507.171 98.7435C511.114 98.6863 514.686 97.9149 517.886 96.4292C521.086 94.9435 523.714 92.8292 525.771 90.0863C527.829 87.2863 529.114 83.8577 529.629 79.8006C530.143 76.4291 529.971 73.4577 529.114 70.8863C528.314 68.3148 526.8 66.2863 524.571 64.8005C522.4 63.3148 519.6 62.4862 516.171 62.3148L495.428 62.2291L477.514 165.344H450.343L471.943 40.5433ZM517.971 165.344L500.4 109.886L527.914 109.801L547.029 163.972L546.943 165.344H517.971Z" fill="white"/>
<path d="M628.886 131.829C629.4 128.972 629.172 126.544 628.2 124.544C627.286 122.544 625.915 120.858 624.086 119.486C622.257 118.115 620.172 116.944 617.829 115.972C615.486 115.001 613.229 114.086 611.057 113.229C606.6 111.515 602.2 109.544 597.857 107.315C593.572 105.086 589.686 102.458 586.2 99.4292C582.714 96.4006 579.972 92.8578 577.971 88.8006C576.029 84.6863 575.229 79.8863 575.572 74.4006C575.972 68.172 577.714 62.8005 580.8 58.2862C583.943 53.7148 587.972 49.9719 592.886 47.0576C597.8 44.1433 603.086 42.029 608.743 40.7148C614.457 39.3433 620.086 38.7148 625.629 38.829C633.4 38.9433 640.343 40.5433 646.457 43.6291C652.629 46.7148 657.457 51.1434 660.943 56.9148C664.486 62.6291 666.172 69.4863 666 77.4863H639C639.172 74.0006 638.715 70.972 637.629 68.4006C636.6 65.8291 634.915 63.8291 632.572 62.4005C630.229 60.972 627.257 60.2291 623.657 60.172C620.572 60.0577 617.514 60.5148 614.486 61.5434C611.457 62.572 608.857 64.172 606.686 66.3434C604.514 68.4577 603.114 71.2006 602.486 74.572C602.086 77.0863 602.457 79.2863 603.6 81.172C604.8 83.0006 606.429 84.572 608.486 85.8863C610.6 87.1435 612.8 88.2292 615.086 89.1435C617.429 90.0578 619.514 90.8292 621.343 91.4578C625.972 93.2292 630.429 95.2863 634.715 97.6292C639.057 99.9149 642.886 102.658 646.2 105.858C649.572 109.001 652.143 112.686 653.915 116.915C655.686 121.144 656.4 126.029 656.057 131.572C655.6 137.972 653.886 143.429 650.915 147.944C647.943 152.458 644.143 156.144 639.515 159.001C634.886 161.858 629.772 163.944 624.172 165.258C618.629 166.572 613 167.201 607.286 167.144C601 167.029 595.086 166.058 589.543 164.229C584.057 162.401 579.257 159.715 575.143 156.172C571.029 152.629 567.829 148.315 565.543 143.229C563.314 138.086 562.286 132.172 562.457 125.486L589.714 125.572C589.486 128.886 589.714 131.829 590.4 134.401C591.143 136.915 592.286 139.029 593.829 140.744C595.429 142.401 597.457 143.658 599.914 144.515C602.429 145.372 605.4 145.801 608.829 145.801C611.857 145.858 614.8 145.401 617.657 144.429C620.572 143.458 623.029 141.944 625.029 139.886C627.086 137.829 628.372 135.144 628.886 131.829Z" fill="url(#paint1_linear_645_114)"/>
<path d="M752.401 143.744L748.629 165.344H684L687.772 143.744H752.401ZM715.029 40.5433L693.343 165.344H666.172L687.772 40.5433H715.029ZM753.172 90.772L749.572 111.686H693.258L696.943 90.772H753.172ZM770.315 40.5433L766.543 62.2291H701.829L705.686 40.5433H770.315Z" fill="url(#paint2_linear_645_114)"/>
<path d="M838.029 123.601L864.687 123.258C863.715 132.629 860.629 140.601 855.429 147.172C850.229 153.744 843.687 158.744 835.801 162.172C827.915 165.601 819.458 167.229 810.429 167.058C801.915 166.887 794.744 165.115 788.915 161.744C783.144 158.315 778.601 153.744 775.286 148.029C771.972 142.315 769.772 135.915 768.686 128.829C767.658 121.686 767.629 114.344 768.601 106.801L769.715 99.1721C770.858 91.2863 772.943 83.7149 775.972 76.4577C779.058 69.1434 783.086 62.6291 788.058 56.9148C793.029 51.1434 798.944 46.6291 805.801 43.3719C812.658 40.1148 820.458 38.5719 829.201 38.7433C838.344 38.9148 846.115 40.8576 852.515 44.5719C858.915 48.2862 863.858 53.4577 867.344 60.0862C870.887 66.6577 872.858 74.4006 873.258 83.3149L846.172 83.2292C846.287 78.7149 845.801 74.8006 844.715 71.4863C843.629 68.172 841.715 65.572 838.972 63.6863C836.287 61.8005 832.487 60.772 827.572 60.6005C822.315 60.4291 817.886 61.5148 814.286 63.8577C810.686 66.1434 807.715 69.2291 805.372 73.1148C803.086 76.9434 801.315 81.1434 800.058 85.7149C798.801 90.2292 797.858 94.6578 797.229 99.0006L796.201 106.886C795.744 110.486 795.372 114.458 795.086 118.801C794.858 123.086 795.115 127.229 795.858 131.229C796.658 135.172 798.286 138.458 800.744 141.086C803.258 143.715 807.001 145.115 811.972 145.286C816.886 145.401 821.115 144.629 824.658 142.972C828.201 141.258 831.086 138.772 833.315 135.515C835.544 132.201 837.115 128.229 838.029 123.601Z" fill="url(#paint3_linear_645_114)"/>
<path d="M222.954 263.612L222.268 269.098C221.125 277.212 218.954 285.012 215.754 292.498C212.611 299.926 208.439 306.555 203.239 312.383C198.097 318.212 191.982 322.812 184.897 326.184C177.868 329.498 169.925 331.069 161.068 330.898C152.554 330.726 145.325 328.898 139.382 325.412C133.439 321.926 128.696 317.269 125.153 311.441C121.668 305.612 119.325 299.098 118.125 291.898C116.925 284.641 116.782 277.212 117.696 269.612L118.382 264.04C119.525 256.04 121.696 248.326 124.896 240.898C128.153 233.469 132.354 226.84 137.496 221.012C142.696 215.183 148.839 210.64 155.925 207.383C163.011 204.069 170.954 202.497 179.754 202.669C188.211 202.783 195.382 204.583 201.268 208.069C207.211 211.555 211.925 216.212 215.411 222.04C218.897 227.869 221.239 234.383 222.439 241.583C223.697 248.783 223.868 256.126 222.954 263.612ZM194.668 269.612L195.439 263.783C195.897 260.183 196.154 256.183 196.211 251.783C196.268 247.383 195.811 243.155 194.839 239.098C193.868 235.04 192.068 231.669 189.439 228.983C186.868 226.298 183.097 224.84 178.125 224.612C172.754 224.383 168.154 225.469 164.325 227.869C160.554 230.212 157.439 233.383 154.982 237.383C152.525 241.326 150.582 245.64 149.154 250.326C147.725 255.012 146.696 259.526 146.068 263.869L145.296 269.698C144.896 273.241 144.639 277.241 144.525 281.698C144.468 286.098 144.896 290.355 145.811 294.469C146.782 298.583 148.582 302.012 151.211 304.755C153.839 307.441 157.639 308.869 162.611 309.041C167.925 309.269 172.468 308.183 176.239 305.783C180.068 303.326 183.239 300.126 185.754 296.183C188.268 292.183 190.239 287.841 191.668 283.155C193.097 278.469 194.097 273.955 194.668 269.612Z" fill="white"/>
<path d="M337.468 263.269L329.497 313.669C325.725 318.183 321.011 321.698 315.354 324.212C309.697 326.726 303.754 328.469 297.525 329.441C291.354 330.469 285.497 330.926 279.954 330.812C271.325 330.698 264.011 328.984 258.011 325.669C252.011 322.355 247.211 317.869 243.611 312.212C240.068 306.555 237.668 300.155 236.411 293.012C235.211 285.812 235.097 278.298 236.068 270.469L237.097 263.183C238.182 255.126 240.268 247.44 243.354 240.126C246.497 232.812 250.582 226.326 255.611 220.669C260.697 214.955 266.697 210.469 273.611 207.212C280.582 203.955 288.468 202.412 297.268 202.583C306.297 202.697 313.954 204.412 320.24 207.726C326.583 211.04 331.497 215.812 334.983 222.04C338.468 228.212 340.497 235.726 341.068 244.583L315.011 244.498C314.668 240.555 313.868 237.098 312.611 234.126C311.411 231.098 309.525 228.726 306.954 227.012C304.383 225.24 300.925 224.269 296.583 224.098C291.325 223.869 286.811 224.955 283.04 227.355C279.325 229.698 276.211 232.84 273.697 236.783C271.182 240.669 269.211 244.926 267.782 249.555C266.354 254.183 265.325 258.64 264.697 262.926L263.668 270.555C263.211 274.555 262.954 278.783 262.897 283.241C262.897 287.698 263.468 291.869 264.611 295.755C265.754 299.641 267.754 302.841 270.611 305.355C273.525 307.812 277.611 309.098 282.868 309.212C285.325 309.269 287.697 309.126 289.983 308.783C292.268 308.383 294.468 307.755 296.583 306.898C298.754 306.041 300.84 304.926 302.84 303.555L306.868 282.726H285.268L288.697 263.269H337.468Z" fill="white"/>
<path d="M430.64 307.583L426.869 329.184H362.24L366.011 307.583H430.64ZM393.269 204.383L371.583 329.184H344.411L366.011 204.383H393.269ZM431.411 254.612L427.811 275.526H371.497L375.183 254.612H431.411ZM448.554 204.383L444.783 226.069H380.068L383.926 204.383H448.554Z" fill="white"/>
<path d="M519.955 204.383L498.355 329.184H471.097L492.783 204.383H519.955ZM556.812 204.383L553.04 226.069H452.84L456.697 204.383H556.812Z" fill="white"/>
<path d="M642.526 254.612L638.755 276.212H575.926L579.698 254.612H642.526ZM597.098 204.383L575.412 329.184H548.24L569.84 204.383H597.098ZM669.955 204.383L648.269 329.184H621.183L642.783 204.383H669.955Z" fill="white"/>
<path d="M754.469 307.583L750.698 329.184H686.069L689.841 307.583H754.469ZM717.098 204.383L695.412 329.184H668.241L689.841 204.383H717.098ZM755.241 254.612L751.641 275.526H695.326L699.012 254.612H755.241ZM772.384 204.383L768.612 226.069H703.898L707.755 204.383H772.384Z" fill="white"/>
<path d="M785.498 204.383L830.584 204.469C838.184 204.583 845.127 205.983 851.413 208.669C857.755 211.297 862.698 215.297 866.241 220.669C869.784 226.04 871.27 232.926 870.698 241.326C870.184 248.126 868.584 253.898 865.898 258.64C863.27 263.326 859.727 267.326 855.27 270.641C850.813 273.898 845.613 276.755 839.67 279.212L829.984 284.098H788.927L792.612 262.412L820.727 262.583C824.67 262.526 828.241 261.755 831.441 260.269C834.641 258.783 837.27 256.669 839.327 253.926C841.384 251.126 842.67 247.698 843.184 243.64C843.698 240.269 843.527 237.298 842.67 234.726C841.87 232.155 840.355 230.126 838.127 228.64C835.955 227.155 833.155 226.326 829.727 226.155L808.984 226.069L791.07 329.184H763.898L785.498 204.383ZM831.527 329.184L813.955 273.726L841.47 273.641L860.584 327.812L860.498 329.184H831.527Z" fill="white"/>
<defs>
<linearGradient id="paint0_linear_645_114" x1="119.965" y1="1.5" x2="119.965" y2="329.181" gradientUnits="userSpaceOnUse">
<stop stop-color="#E789FF"/>
<stop offset="1" stop-color="#FF6D2F"/>
</linearGradient>
<linearGradient id="paint1_linear_645_114" x1="239.485" y1="102.939" x2="873.258" y2="102.939" gradientUnits="userSpaceOnUse">
<stop stop-color="#E789FF"/>
<stop offset="1" stop-color="#FF6D2F"/>
</linearGradient>
<linearGradient id="paint2_linear_645_114" x1="239.485" y1="102.939" x2="873.258" y2="102.939" gradientUnits="userSpaceOnUse">
<stop stop-color="#E789FF"/>
<stop offset="1" stop-color="#FF6D2F"/>
</linearGradient>
<linearGradient id="paint3_linear_645_114" x1="239.485" y1="102.939" x2="873.258" y2="102.939" gradientUnits="userSpaceOnUse">
<stop stop-color="#E789FF"/>
<stop offset="1" stop-color="#FF6D2F"/>
</linearGradient>
</defs>
</svg>
