<svg xmlns="http://www.w3.org/2000/svg" viewBox="0 0 480 480" fill="none" shape-rendering="auto" role="img" aria-label="Avatar"><!-- Generated by DiceBear (https://dicebear.com) --><metadata xmlns:rdf="http://www.w3.org/1999/02/22-rdf-syntax-ns#" xmlns:xsi="http://www.w3.org/2001/XMLSchema-instance" xmlns:dc="http://purl.org/dc/elements/1.1/" xmlns:dcterms="http://purl.org/dc/terms/"><rdf:RDF><rdf:Description><dc:title>Custom Avatar</dc:title><dc:creator>Ashley Seo</dc:creator><dc:source xsi:type="dcterms:URI">https://www.figma.com/community/file/881358461963645496</dc:source><dcterms:license xsi:type="dcterms:URI">https://creativecommons.org/licenses/by/4.0/</dcterms:license><dc:rights>Remix of “Custom Avatar” (https://www.figma.com/community/file/881358461963645496) by “Ashley Seo”, licensed under “CC BY 4.0” (https://creativecommons.org/licenses/by/4.0/)</dc:rights></rdf:Description></rdf:RDF></metadata><defs><g id="head-base-cbdd9d97"><path d="M264.2 5.4s131.6 20.6 121.6 208c0 .8 15.2 11 16.4 12a77 77 0 0 1 23.5 36.3c13.8 51.4-35.8 104.2-76 118.3q-22.7 7.6-46.7 8.2c-103.2 3-240-62.6-247-190.9q-.3-6.9-.2-13.8a203 203 0 0 1 15.4-70s57.5-142.6 193-108.1" fill="#8c5a2b"/><path d="M389.1 215.5A57 57 0 0 0 386 226a40 40 0 0 0 8.5 30.3 42 42 0 0 0 33 15.7c-3.2-31.7-29-50.7-38.3-56.5m-185.5 83.3c24.5-5.3 39.6-31 33.9-57.5s-30.2-43.8-54.6-38.5-39.6 31-33.9 57.5 30.2 43.7 54.6 38.5" fill="#DC2400" opacity=".1" style="mix-blend-mode:multiply"/><path opacity=".1" d="M323.3 224.6s21-19.8 37-1.2Z" fill="black"/><path d="M128.8 323.6C59.4 358.4-3.7 271.1 16.5 222c12.9-31.3 50.4-33.8 72.2-5.1a185 185 0 0 1 29.1 59" fill="#8c5a2b"/><path opacity=".1" d="M71.6 245.7c9 9 16.1 22.6 25 30-1.7-12.5-4.3-26-10.4-37.3-6.2-11.5-17.5-21-29-20.3-14.3 1-26 17.6-27.5 32.7 1-9 19-15.1 26-14.3 10.8 20.4 15 60.7 15 60.7 9-22.8 5.3-40.7.9-51.5" fill="black"/></g><g id="mouth-openSad-cbdd9d97"><path d="M73.7 46.3C101.4 30 125 29 141.7 28c33.3-2 61.1 8.8 68.5 42.7 6.8 31.2-16.9 49.4-27.8 49S169 107.5 143 106.9s-63.4 42.9-85.5 26.6c-22.2-16.4-18.4-66.6 16.1-87" fill="#873C41"/><path d="M195.7 114.2a23 23 0 0 1-13.1 5.3c-4.3-.1-7.3-2-10.9-4.4a48 48 0 0 0-28.5-8.5c-11-.2-24.2 7.4-37.2 15.1-17.8 10.4-35.6 20.9-48.4 11.5-11.7-8.6-16.2-26.4-12.8-44.4 20-6 42.3-5.6 62.8-3.3 29.5 3.3 59.2 10 85.4 26.8z" fill="#EE7E8B"/><path d="M95.8 52.5a47 47 0 0 1-38 7.5q6.6-8 16-13.7c27-16 50-17.3 66.7-18.4h1.3c21.6-1.4 40.8 2.7 53.7 14.9l-.5.7a29 29 0 0 1-32.3 7.3c-1.7-.7-3.6.4-4.4 1.9-9.8 18.9-43.8 19.8-57 1.4-1.3-1.7-3.6-2.8-5.5-1.6" fill="white"/></g><g id="eyes-angry-cbdd9d97"><path d="M130 66.6c3.2 3.5 5.1 9 5.1 14 0 8-3.6 16.6-12.8 15.6-7.8-.8-9.7-11-9.7-16q0-2.9.6-5.5a80 80 0 0 0 16.9-8.1M17.4 63.5a49 49 0 0 0 29.1 11q.8 3 .8 6.4c0 11.9-6.2 21.5-19.1 19.5-9.3-2.5-15.5-9-15.4-21.5 0-6.4 1.8-11.7 4.6-15.4" fill="#2A1200"/><path d="M48.3 50.7A44 44 0 0 1 9.8 38.1c-3.2-3.3-4.2-9.2-1-13 3-3.6 8.6-4.7 12-1.2l3.4 3c.3.3 1.3.8 1.6 1.2l.5.3a38 38 0 0 0 6 3q.9.1 1.8.5a35 35 0 0 0 6.3 1h2l4.3-.6c4.4-.8 9 3.5 9.3 8.3.2 5.2-3 9.3-7.7 10.1m89.5-8.9c-5.9 6-13.7 9.5-21.7 9.7a8 8 0 0 1-6-2.8 10 10 0 0 1-2.2-6.5 10 10 0 0 1 2.8-6.5 9 9 0 0 1 6.1-2.7h1.2l3.4-1q2-1 3.7-2.2l1.2-1.1c1.6-1.7 4-2.7 6.1-2.7s4.6 1 6 2.8 2.4 4 2.2 6.5q-.2 3.8-2.8 6.5" fill="#71472D"/></g><g id="hair-mohawk-cbdd9d97"><path d="M459 140.8c-74-50.6-244.4-113.6-334 40l28.2 32a210 210 0 0 0-25.7 43.2c-8.8 22-12 46.3-12.6 70.6q-.1 6.9.2 13.8c38.1 6.5 56.1 47.3 60.4 67 0 0 11.3.6 14-1.6 14-7.3 38.9-37.4 26.5-99-6-28-2-50.3 47-85 20.6-14.5 46.3-19.2 70.3-18.7l10 .5c29.2 2.3 54.4 11.5 62.7 18.2 12.8 10.4 19 14.4 20.4 15q-8.4-18.9-19-32.8c7.8-19 21.9-44.5 40.7-57.4q5.2-3.7 10.9-5.8" fill="#605de4"/><path d="M125 180.8c89.6-153.6 260-90.6 334-40-20-13.7-115.5-40.5-159-18.5l.4.7c-83-18-151.1 30.5-175.4 57.8" fill="white" fill-opacity=".2"/><path d="M459 140.8c-30.4 11.2-51 58-57 78-28.5-14-47-15-77-16 4-32.8-17.7-67.8-25-80.5 43.5-22 139 4.8 159 18.5" fill="black" fill-opacity=".1"/><path d="M325.2 201.2c-.8-12-40.7-41.1-81.2-36.4-54.1 6.4-86.5 45-89 50l-1.8-2a210 210 0 0 0-25.7 43.2c-8.8 22-12 46.3-12.6 70.6q-.1 6.9.2 13.8c38.1 6.5 56.1 47.3 60.4 67 0 0 11.3.6 14-1.6 14-7.3 38.9-37.4 26.5-99-6-28-2-50.3 47-85 20.6-14.5 46.3-19.2 70.3-18.7l-8.3-.3zm18.1 2.4c29.2 2.3 54.4 11.5 62.7 18.2 12.8 10.4 19 14.4 20.4 15q-8.4-18.9-19-32.8-3.6 8.6-5.4 14.7v.1a138 138 0 0 0-58.7-15.2" fill="white" fill-opacity=".7"/></g><g id="accessories-catEars-cbdd9d97"><path d="M108.5 5.9c11.1-17.1 55.7 14.7 77.2 33-29.2-1.8-45.2 37.3-50.4 56.4-9.2 9-24.5 10.7-30.7 10.7-3.4-26.3-7.3-83 3.9-100.1" fill="#A09B9B"/><path d="m101.7 74.4-.3-7 11.6 4zm.9 12.7 1.4 14c7.3-2.7 15.8-5.4 19.4-6.6z" fill="#C4C4C4"/><path d="M185.7 39c-28.5 9.7-45.4 41.2-50.3 55.7C113 66.8 101.7 18 113.3 5.6c9.3-10 52.1 18 72.4 33.3" fill="#FEB3A4"/><path d="M136 93c5.5-15 22.2-44.7 49.7-54l-5.9-4.4c-7.6-2.6-18-5-30.1-5.1C129.4 29 131.8 70 135.9 93" fill="#FFE7E2"/><path d="M304 56.9a25 25 0 0 1 13 10.7c1-19.4 0-57.3-13.3-57.7-8-.3-21.3 7.7-33.3 16.7A164 164 0 0 1 304 56.9" fill="#A09B9B"/><path d="M317.2 74.8c0-18-2.6-60.3-11.4-62.2-7-1.5-18 7.6-26.6 20.4a167 167 0 0 1 38 41.8" fill="#FEB3A4"/><path d="M317.2 74.8q0-6.4-.5-15.3-3-7-8.2-15.2c-4.5-7.1-11.8-6.5-19.2-2.8a168 168 0 0 1 28 33.3" fill="#FFE7E2"/></g><clipPath id="clip-cbdd9d97"><rect width="480" height="480" rx="0" ry="0"/></clipPath></defs><title>Avatar</title><g clip-path="url(#clip-cbdd9d97)"><g transform="translate(240, 240) scale(1.09) translate(-240, -240)"><use transform="matrix(.85682 0 0 .85439 52 75.4)" href="#head-base-cbdd9d97"/><use transform="matrix(.85472 0 0 .855 222 253.2)" href="#mouth-openSad-cbdd9d97"/><use transform="matrix(.85472 0 0 .855 261.6 170.8)" href="#eyes-angry-cbdd9d97"/><use transform="matrix(.85472 0 0 .85667 1.8 -47.6)" href="#hair-mohawk-cbdd9d97"/><use transform="matrix(.85472 0 0 .85667 85.6 71)" href="#accessories-catEars-cbdd9d97"/></g></g></svg>