<svg xmlns="http://www.w3.org/2000/svg" viewBox="0 0 480 480" fill="none" shape-rendering="auto" role="img" aria-label="Avatar"><!-- Generated by DiceBear (https://dicebear.com) --><metadata xmlns:rdf="http://www.w3.org/1999/02/22-rdf-syntax-ns#" xmlns:xsi="http://www.w3.org/2001/XMLSchema-instance" xmlns:dc="http://purl.org/dc/elements/1.1/" xmlns:dcterms="http://purl.org/dc/terms/"><rdf:RDF><rdf:Description><dc:title>Custom Avatar</dc:title><dc:creator>Ashley Seo</dc:creator><dc:source xsi:type="dcterms:URI">https://www.figma.com/community/file/881358461963645496</dc:source><dcterms:license xsi:type="dcterms:URI">https://creativecommons.org/licenses/by/4.0/</dcterms:license><dc:rights>Remix of “Custom Avatar” (https://www.figma.com/community/file/881358461963645496) by “Ashley Seo”, licensed under “CC BY 4.0” (https://creativecommons.org/licenses/by/4.0/)</dc:rights></rdf:Description></rdf:RDF></metadata><defs><g id="head-base-4397a54e"><path d="M264.2 5.4s131.6 20.6 121.6 208c0 .8 15.2 11 16.4 12a77 77 0 0 1 23.5 36.3c13.8 51.4-35.8 104.2-76 118.3q-22.7 7.6-46.7 8.2c-103.2 3-240-62.6-247-190.9q-.3-6.9-.2-13.8a203 203 0 0 1 15.4-70s57.5-142.6 193-108.1" fill="#efcc9f"/><path d="M389.1 215.5A57 57 0 0 0 386 226a40 40 0 0 0 8.5 30.3 42 42 0 0 0 33 15.7c-3.2-31.7-29-50.7-38.3-56.5m-185.5 83.3c24.5-5.3 39.6-31 33.9-57.5s-30.2-43.8-54.6-38.5-39.6 31-33.9 57.5 30.2 43.7 54.6 38.5" fill="#DC2400" opacity=".1" style="mix-blend-mode:multiply"/><path opacity=".1" d="M323.3 224.6s21-19.8 37-1.2Z" fill="black"/><path d="M128.8 323.6C59.4 358.4-3.7 271.1 16.5 222c12.9-31.3 50.4-33.8 72.2-5.1a185 185 0 0 1 29.1 59" fill="#efcc9f"/><path opacity=".1" d="M71.6 245.7c9 9 16.1 22.6 25 30-1.7-12.5-4.3-26-10.4-37.3-6.2-11.5-17.5-21-29-20.3-14.3 1-26 17.6-27.5 32.7 1-9 19-15.1 26-14.3 10.8 20.4 15 60.7 15 60.7 9-22.8 5.3-40.7.9-51.5" fill="black"/></g><g id="mouth-braces-4397a54e"><path d="M155.7 51c3 1.7 24.1-24.8 38.2-16.7 4.7 2.7 8.3 7.3 11 12.3 6 11 8 24.4 5.6 36.8a67 67 0 0 1-29 41.2c-37.3 25.5-67 20.7-106.7 6C43.4 118.9.8 95 9.6 51.9c15.5-76 146-1 146.1-1" fill="#873C41"/><path d="M47.7 46c10.2 6.4 22.5 7 33.6 4.5 2-.5 3.8 1.3 4.3 3.4 5.4 21 36 32 51.5 18.5 1.2-1 3.3-1.3 4.5-.1 8.3 7.8 21.6 10 31.4 4.6 13.8-7.5 13.7-28.6 10-43.3-12.2 3.7-25 18.7-27.3 17.3 0 0-80.1-46-122.3-29.4a31 31 0 0 0 14.3 24.6" fill="white"/><path d="M162.7 127.8c-22-20.1-48.9-31.4-76.2-39.3C63 81.6 36.8 77.2 13 84c11 23.5 39.2 38.2 61.7 46.6 34.8 12.9 61.8 18.2 93 2.2z" fill="#EE7E8B"/><path d="m42 19 7 4 14 7.1a470 470 0 0 0 51.6 20.1l2.2.8c14.4 5 32.2 10.4 51.4 10.4a31 31 0 0 0 15-4.3 1.5 1.5 0 1 1 1.3 2.6 34 34 0 0 1-16.2 4.7c-19.8 0-38-5.6-52.5-10.6l-2.2-.7a487 487 0 0 1-52-20.4l-1.1-.5-13.1-6.7q-5.6-3-9.6-5.6z" fill="#C4C4C4"/><rect x="162.1" y="56" width="12" height="12" rx="2" transform="rotate(3.2 162 56)" fill="#A09E9E"/><rect x="111.5" y="45" width="12" height="12" rx="2" transform="rotate(15 111.5 45)" fill="#A09E9E"/><rect x="59.7" y="24" width="12" height="12" rx="2" transform="rotate(26.4 59.7 24)" fill="#A09E9E"/></g><g id="eyes-angry-4397a54e"><path d="M130 66.6c3.2 3.5 5.1 9 5.1 14 0 8-3.6 16.6-12.8 15.6-7.8-.8-9.7-11-9.7-16q0-2.9.6-5.5a80 80 0 0 0 16.9-8.1M17.4 63.5a49 49 0 0 0 29.1 11q.8 3 .8 6.4c0 11.9-6.2 21.5-19.1 19.5-9.3-2.5-15.5-9-15.4-21.5 0-6.4 1.8-11.7 4.6-15.4" fill="#2A1200"/><path d="M48.3 50.7A44 44 0 0 1 9.8 38.1c-3.2-3.3-4.2-9.2-1-13 3-3.6 8.6-4.7 12-1.2l3.4 3c.3.3 1.3.8 1.6 1.2l.5.3a38 38 0 0 0 6 3q.9.1 1.8.5a35 35 0 0 0 6.3 1h2l4.3-.6c4.4-.8 9 3.5 9.3 8.3.2 5.2-3 9.3-7.7 10.1m89.5-8.9c-5.9 6-13.7 9.5-21.7 9.7a8 8 0 0 1-6-2.8 10 10 0 0 1-2.2-6.5 10 10 0 0 1 2.8-6.5 9 9 0 0 1 6.1-2.7h1.2l3.4-1q2-1 3.7-2.2l1.2-1.1c1.6-1.7 4-2.7 6.1-2.7s4.6 1 6 2.8 2.4 4 2.2 6.5q-.2 3.8-2.8 6.5" fill="#71472D"/></g><g id="hair-curlyShortHair-4397a54e"><path d="M398.9 248a45 45 0 0 0 36.3 13.3c5 17.3 8.5 37 9.6 59.9a44.5 44.5 0 0 0 15-70.1 48 48 0 0 0 17.2-36.8 47 47 0 0 0-37.6-46.5q.4-3 .4-6.1c0-28.8-22.7-52-50.7-52q-11.5 0-21.3 4.7A51 51 0 0 0 321 82c-17.6 0-33 9.2-42.1 23.2A50 50 0 0 0 248 94.7c-21 0-39 12.9-46.9 31.2q-9.6-4.5-20.8-4.6a51.3 51.3 0 0 0-50.6 51.1A52.4 52.4 0 0 0 95 258.8a52.3 52.3 0 0 0 35.2 89.8q2.8 0 5.6-.3c24.1 14.5 36.3 43.6 39.7 59.3 0 0 11.3.6 14-1.5 11-5.8 29-25.9 29.8-64.5a52 52 0 0 0 13.4-53.3 52 52 0 0 0 34-31.1A50 50 0 0 0 328 241a46.3 46.3 0 0 0 70.9 7" fill="#71472d"/></g><g id="accessories-glasses-4397a54e"><path fill-rule="evenodd" clip-rule="evenodd" d="m395.3 186.3-49-1.8-.6-10.5 49.8 2.3z" fill="#896307"/><path fill-rule="evenodd" clip-rule="evenodd" d="M220.3 123.7c-27.2 4.3-46.1 32.2-41.3 63 4.9 30.9 31.4 51.6 58.6 47.3s46.1-32.2 41.3-63-31.4-51.6-58.6-47.3m-52 52.2c.6-30.6 21-57.4 50.4-62 33.4-5.3 64.4 20 70 55.6l3.3-1.2a27 27 0 0 1 13-.7c.6-12.5 4.3-24 10.2-33a41 41 0 0 1 31.6-19.8 42 42 0 0 1 34 16.3 71 71 0 0 1 15.7 40.8 69 69 0 0 1-10 42.3 41 41 0 0 1-31.6 19.7 42 42 0 0 1-34-16.2 71 71 0 0 1-15.7-39.6q-5.2-1.9-10.4-.2-3.2 1-5.3 2.2c.3 31.3-20.3 59-50.3 63.8-33.4 5.2-64.4-20.1-70-55.6l-.3-2.2-86.4-14a102 102 0 0 0-44.4 2.6c-12 4-18.3 18.8-18.5 28l-9.9-.2c.3-15.3 11.4-32.6 25.3-37.3s31.7-5.3 48.9-3v.1zm155.2-35.8a59 59 0 0 0-8.5 36c1 14.1 6.1 26.5 13.4 35 7.4 8.7 16.6 13.3 26 12.8s17.8-6 23.8-15.2a59 59 0 0 0 8.5-36.1c-1-14.1-6.2-26.5-13.5-35s-16.5-13.3-25.9-12.8-17.8 6-23.8 15.3" fill="#C5900F"/></g><clipPath id="clip-4397a54e"><rect width="480" height="480" rx="0" ry="0"/></clipPath></defs><title>Avatar</title><g clip-path="url(#clip-4397a54e)"><g transform="translate(240, 240) scale(1.09) translate(-240, -240)"><use transform="matrix(.85682 0 0 .85439 52 75.4)" href="#head-base-4397a54e"/><use transform="matrix(.85472 0 0 .855 222 253.2)" href="#mouth-braces-4397a54e"/><use transform="matrix(.85472 0 0 .855 261.6 170.8)" href="#eyes-angry-4397a54e"/><use transform="matrix(.85472 0 0 .85667 1.8 -47.6)" href="#hair-curlyShortHair-4397a54e"/><use transform="matrix(.85472 0 0 .85667 85.6 71)" href="#accessories-glasses-4397a54e"/></g></g></svg>